<?xml version="1.0" encoding="UTF-8" standalone="no"?>
<!DOCTYPE svg PUBLIC "-//W3C//DTD SVG 1.1//EN"
 "http://www.w3.org/Graphics/SVG/1.1/DTD/svg11.dtd">
<!-- Generated by graphviz version 2.38.0 (20140413.2041)
 -->
<!-- Title: G Pages: 1 -->
<svg width="1401pt" height="332pt"
 viewBox="0.00 0.00 1400.84 332.00" xmlns="http://www.w3.org/2000/svg" xmlns:xlink="http://www.w3.org/1999/xlink">
<g id="graph0" class="graph" transform="scale(1 1) rotate(0) translate(4 328)">
<title>G</title>
<polygon fill="white" stroke="none" points="-4,4 -4,-328 1396.84,-328 1396.84,4 -4,4"/>
<!-- String -->
<g id="node1" class="node"><title>String</title>
<ellipse fill="none" stroke="black" cx="189.845" cy="-162" rx="38.1938" ry="18"/>
<text text-anchor="middle" x="189.845" y="-158.3" font-family="sans-serif" font-size="14.00">String</text>
</g>
<!-- ArrayList -->
<g id="node17" class="node"><title>ArrayList</title>
<polygon fill="none" stroke="black" points="461.923,-18 431.884,-36 371.806,-36 341.767,-18 371.806,-2.4869e-14 431.884,-0 461.923,-18"/>
<text text-anchor="middle" x="401.845" y="-14.3" font-family="sans-serif" font-size="14.00">ArrayList</text>
</g>
<!-- String&#45;&gt;ArrayList -->
<g id="edge5" class="edge"><title>String&#45;&gt;ArrayList</title>
<path fill="none" stroke="black" d="M205.999,-145.406C232.052,-120.274 280.676,-73.4558 282.845,-72 305.108,-57.0546 332.274,-44.5845 355.027,-35.5026"/>
<polygon fill="black" stroke="black" points="356.432,-38.7112 364.48,-31.8204 353.892,-32.1885 356.432,-38.7112"/>
</g>
<!-- Array -->
<g id="node18" class="node"><title>Array</title>
<polygon fill="none" stroke="black" points="373.9,-90 353.372,-108 312.317,-108 291.79,-90 312.317,-72 353.372,-72 373.9,-90"/>
<text text-anchor="middle" x="332.845" y="-86.3" font-family="sans-serif" font-size="14.00">Array</text>
</g>
<!-- String&#45;&gt;Array -->
<g id="edge4" class="edge"><title>String&#45;&gt;Array</title>
<path fill="none" stroke="black" d="M215.41,-148.485C238.348,-137.257 272.224,-120.675 297.704,-108.202"/>
<polygon fill="black" stroke="black" points="299.576,-111.183 307.019,-103.642 296.498,-104.895 299.576,-111.183"/>
</g>
<!-- Str -->
<g id="node24" class="node"><title>Str</title>
<polygon fill="none" stroke="black" points="91.8449,-108 37.8449,-108 37.8449,-72 91.8449,-72 91.8449,-108"/>
<text text-anchor="middle" x="64.8449" y="-86.3" font-family="sans-serif" font-size="14.00">Str</text>
</g>
<!-- String&#45;&gt;Str -->
<g id="edge3" class="edge"><title>String&#45;&gt;Str</title>
<path fill="none" stroke="black" d="M166.039,-147.669C147.651,-137.372 121.897,-122.949 100.972,-111.231"/>
<polygon fill="black" stroke="black" points="102.474,-108.061 92.039,-106.229 99.054,-114.169 102.474,-108.061"/>
</g>
<!-- Int -->
<g id="node25" class="node"><title>Int</title>
<polygon fill="none" stroke="black" points="163.845,-108 109.845,-108 109.845,-72 163.845,-72 163.845,-108"/>
<text text-anchor="middle" x="136.845" y="-86.3" font-family="sans-serif" font-size="14.00">Int</text>
</g>
<!-- String&#45;&gt;Int -->
<g id="edge1" class="edge"><title>String&#45;&gt;Int</title>
<path fill="none" stroke="black" d="M177.552,-144.765C171.119,-136.268 163.1,-125.677 155.884,-116.146"/>
<polygon fill="black" stroke="black" points="158.637,-113.984 149.81,-108.124 153.056,-118.209 158.637,-113.984"/>
</g>
<!-- Bool -->
<g id="node26" class="node"><title>Bool</title>
<polygon fill="none" stroke="black" points="235.845,-108 181.845,-108 181.845,-72 235.845,-72 235.845,-108"/>
<text text-anchor="middle" x="208.845" y="-86.3" font-family="sans-serif" font-size="14.00">Bool</text>
</g>
<!-- String&#45;&gt;Bool -->
<g id="edge2" class="edge"><title>String&#45;&gt;Bool</title>
<path fill="none" stroke="black" d="M194.444,-144.055C196.56,-136.261 199.122,-126.822 201.495,-118.079"/>
<polygon fill="black" stroke="black" points="204.914,-118.843 204.156,-108.275 198.158,-117.009 204.914,-118.843"/>
</g>
<!-- HasSize -->
<g id="node2" class="node"><title>HasSize</title>
<ellipse fill="none" stroke="black" cx="189.845" cy="-234" rx="46.2923" ry="18"/>
<text text-anchor="middle" x="189.845" y="-230.3" font-family="sans-serif" font-size="14.00">HasSize</text>
</g>
<!-- HasSize&#45;&gt;String -->
<g id="edge7" class="edge"><title>HasSize&#45;&gt;String</title>
<path fill="none" stroke="black" d="M189.845,-215.697C189.845,-207.983 189.845,-198.712 189.845,-190.112"/>
<polygon fill="black" stroke="black" points="193.345,-190.104 189.845,-180.104 186.345,-190.104 193.345,-190.104"/>
</g>
<!-- List -->
<g id="node5" class="node"><title>List</title>
<ellipse fill="none" stroke="black" cx="484.845" cy="-162" rx="27" ry="18"/>
<text text-anchor="middle" x="484.845" y="-158.3" font-family="sans-serif" font-size="14.00">List</text>
</g>
<!-- HasSize&#45;&gt;List -->
<g id="edge14" class="edge"><title>HasSize&#45;&gt;List</title>
<path fill="none" stroke="black" stroke-dasharray="1,5" d="M227.163,-223.252C237.106,-220.769 247.86,-218.187 257.845,-216 342.228,-197.516 366.678,-206.659 448.845,-180 450.768,-179.376 452.721,-178.673 454.673,-177.916"/>
<polygon fill="black" stroke="black" points="456.452,-180.963 464.272,-173.814 453.701,-174.526 456.452,-180.963"/>
</g>
<!-- HasSize&#45;&gt;Str -->
<g id="edge6" class="edge"><title>HasSize&#45;&gt;Str</title>
<path fill="none" stroke="black" d="M162.386,-219.519C145.588,-210.216 124.57,-196.557 109.845,-180 93.6542,-161.795 81.6667,-136.715 74.1533,-117.817"/>
<polygon fill="black" stroke="black" points="77.3618,-116.407 70.5374,-108.302 70.8184,-118.894 77.3618,-116.407"/>
</g>
<!-- Container -->
<g id="node3" class="node"><title>Container</title>
<ellipse fill="none" stroke="black" cx="690.845" cy="-234" rx="55.4913" ry="18"/>
<text text-anchor="middle" x="690.845" y="-230.3" font-family="sans-serif" font-size="14.00">Container</text>
</g>
<!-- Optional -->
<g id="node4" class="node"><title>Optional</title>
<ellipse fill="none" stroke="black" cx="706.845" cy="-162" rx="48.9926" ry="18"/>
<text text-anchor="middle" x="706.845" y="-158.3" font-family="sans-serif" font-size="14.00">Optional</text>
</g>
<!-- Container&#45;&gt;Optional -->
<g id="edge39" class="edge"><title>Container&#45;&gt;Optional</title>
<path fill="none" stroke="black" stroke-dasharray="1,5" d="M694.8,-215.697C696.563,-207.983 698.682,-198.712 700.648,-190.112"/>
<polygon fill="black" stroke="black" points="704.119,-190.633 702.935,-180.104 697.295,-189.073 704.119,-190.633"/>
</g>
<!-- Container&#45;&gt;List -->
<g id="edge15" class="edge"><title>Container&#45;&gt;List</title>
<path fill="none" stroke="black" stroke-dasharray="1,5" d="M649.766,-221.928C614.99,-212.144 564.051,-196.842 520.845,-180 519.01,-179.285 517.137,-178.518 515.257,-177.72"/>
<polygon fill="black" stroke="black" points="516.509,-174.446 505.951,-173.565 513.656,-180.838 516.509,-174.446"/>
</g>
<!-- Maybe -->
<g id="node23" class="node"><title>Maybe</title>
<polygon fill="none" stroke="black" points="756.464,-95.5623 706.845,-108 657.226,-95.5623 657.272,-75.4377 756.418,-75.4377 756.464,-95.5623"/>
<text text-anchor="middle" x="706.845" y="-86.3" font-family="sans-serif" font-size="14.00">Maybe</text>
</g>
<!-- Optional&#45;&gt;Maybe -->
<g id="edge40" class="edge"><title>Optional&#45;&gt;Maybe</title>
<path fill="none" stroke="black" d="M706.845,-143.697C706.845,-135.983 706.845,-126.712 706.845,-118.112"/>
<polygon fill="black" stroke="black" points="710.345,-118.104 706.845,-108.104 703.345,-118.104 710.345,-118.104"/>
</g>
<!-- VariableSizeList -->
<g id="node6" class="node"><title>VariableSizeList</title>
<ellipse fill="none" stroke="black" cx="511.845" cy="-90" rx="81.7856" ry="18"/>
<text text-anchor="middle" x="511.845" y="-86.3" font-family="sans-serif" font-size="14.00">VariableSizeList</text>
</g>
<!-- List&#45;&gt;VariableSizeList -->
<g id="edge17" class="edge"><title>List&#45;&gt;VariableSizeList</title>
<path fill="none" stroke="black" stroke-dasharray="1,5" d="M491.243,-144.411C494.358,-136.335 498.179,-126.431 501.679,-117.355"/>
<polygon fill="black" stroke="black" points="504.971,-118.546 505.305,-107.956 498.44,-116.027 504.971,-118.546"/>
</g>
<!-- List&#45;&gt;Array -->
<g id="edge16" class="edge"><title>List&#45;&gt;Array</title>
<path fill="none" stroke="black" d="M463.545,-150.888C458.717,-148.61 453.609,-146.213 448.845,-144 422.138,-131.594 391.871,-117.773 368.952,-107.356"/>
<polygon fill="black" stroke="black" points="370.164,-104.062 359.611,-103.114 367.269,-110.436 370.164,-104.062"/>
</g>
<!-- VariableSizeList&#45;&gt;ArrayList -->
<g id="edge19" class="edge"><title>VariableSizeList&#45;&gt;ArrayList</title>
<path fill="none" stroke="black" d="M486.332,-72.7646C471.766,-63.4956 453.283,-51.7336 437.321,-41.576"/>
<polygon fill="black" stroke="black" points="439.07,-38.5399 428.754,-36.1239 435.311,-44.4455 439.07,-38.5399"/>
</g>
<!-- Stack -->
<g id="node7" class="node"><title>Stack</title>
<ellipse fill="none" stroke="black" cx="565.845" cy="-162" rx="35.9954" ry="18"/>
<text text-anchor="middle" x="565.845" y="-158.3" font-family="sans-serif" font-size="14.00">Stack</text>
</g>
<!-- Stack&#45;&gt;VariableSizeList -->
<g id="edge18" class="edge"><title>Stack&#45;&gt;VariableSizeList</title>
<path fill="none" stroke="black" stroke-dasharray="1,5" d="M553.32,-144.765C546.766,-136.268 538.595,-125.677 531.244,-116.146"/>
<polygon fill="black" stroke="black" points="533.934,-113.904 525.055,-108.124 528.392,-118.18 533.934,-113.904"/>
</g>
<!-- Queue -->
<g id="node8" class="node"><title>Queue</title>
<ellipse fill="none" stroke="black" cx="399.845" cy="-162" rx="40.0939" ry="18"/>
<text text-anchor="middle" x="399.845" y="-158.3" font-family="sans-serif" font-size="14.00">Queue</text>
</g>
<!-- Appendable -->
<g id="node9" class="node"><title>Appendable</title>
<ellipse fill="none" stroke="black" cx="836.845" cy="-162" rx="63.0888" ry="18"/>
<text text-anchor="middle" x="836.845" y="-158.3" font-family="sans-serif" font-size="14.00">Appendable</text>
</g>
<!-- Appendable&#45;&gt;ArrayList -->
<g id="edge32" class="edge"><title>Appendable&#45;&gt;ArrayList</title>
<path fill="none" stroke="black" d="M828.453,-144.007C817.246,-123.281 795.331,-88.9222 765.845,-72 715.979,-43.3821 556.184,-28.8016 465.768,-22.6696"/>
<polygon fill="black" stroke="black" points="465.844,-19.167 455.634,-21.9979 465.381,-26.1517 465.844,-19.167"/>
</g>
<!-- Appendable&#45;&gt;Array -->
<g id="edge31" class="edge"><title>Appendable&#45;&gt;Array</title>
<path fill="none" stroke="black" d="M791.703,-149.412C782.84,-147.401 773.582,-145.482 764.845,-144 613.287,-118.285 572.898,-130.6 420.845,-108 405.859,-105.773 389.543,-102.78 375.076,-99.9273"/>
<polygon fill="black" stroke="black" points="375.407,-96.424 364.914,-97.8873 374.029,-103.287 375.407,-96.424"/>
</g>
<!-- Pushable -->
<g id="node10" class="node"><title>Pushable</title>
<ellipse fill="none" stroke="black" cx="565.845" cy="-234" rx="51.1914" ry="18"/>
<text text-anchor="middle" x="565.845" y="-230.3" font-family="sans-serif" font-size="14.00">Pushable</text>
</g>
<!-- Pushable&#45;&gt;Stack -->
<g id="edge20" class="edge"><title>Pushable&#45;&gt;Stack</title>
<path fill="none" stroke="black" stroke-dasharray="1,5" d="M565.845,-215.697C565.845,-207.983 565.845,-198.712 565.845,-190.112"/>
<polygon fill="black" stroke="black" points="569.345,-190.104 565.845,-180.104 562.345,-190.104 569.345,-190.104"/>
</g>
<!-- Pushable&#45;&gt;Queue -->
<g id="edge21" class="edge"><title>Pushable&#45;&gt;Queue</title>
<path fill="none" stroke="black" stroke-dasharray="1,5" d="M534.231,-219.669C506.679,-208.05 466.672,-191.18 437.477,-178.869"/>
<polygon fill="black" stroke="black" points="438.598,-175.543 428.024,-174.883 435.878,-181.993 438.598,-175.543"/>
</g>
<!-- Summable -->
<g id="node11" class="node"><title>Summable</title>
<ellipse fill="none" stroke="black" cx="57.8449" cy="-234" rx="57.6901" ry="18"/>
<text text-anchor="middle" x="57.8449" y="-230.3" font-family="sans-serif" font-size="14.00">Summable</text>
</g>
<!-- Summable&#45;&gt;String -->
<g id="edge27" class="edge"><title>Summable&#45;&gt;String</title>
<path fill="none" stroke="black" d="M85.8387,-218.155C106.499,-207.199 134.696,-192.245 156.52,-180.672"/>
<polygon fill="black" stroke="black" points="158.247,-183.718 165.442,-175.941 154.967,-177.534 158.247,-183.718"/>
</g>
<!-- Summable&#45;&gt;ArrayList -->
<g id="edge29" class="edge"><title>Summable&#45;&gt;ArrayList</title>
<path fill="none" stroke="black" d="M46.9124,-216.069C27.6434,-183.883 -7.08512,-113.396 28.8449,-72 67.3545,-27.6317 235.491,-19.434 332.366,-18.491"/>
<polygon fill="black" stroke="black" points="332.401,-21.9909 342.374,-18.4168 332.349,-14.9911 332.401,-21.9909"/>
</g>
<!-- Summable&#45;&gt;Array -->
<g id="edge28" class="edge"><title>Summable&#45;&gt;Array</title>
<path fill="none" stroke="black" d="M102.049,-222.378C147.193,-211.095 213.822,-193.113 236.845,-180 266.309,-163.219 294.036,-135.769 312.044,-115.785"/>
<polygon fill="black" stroke="black" points="314.689,-118.078 318.683,-108.264 309.441,-113.445 314.689,-118.078"/>
</g>
<!-- Summable&#45;&gt;Str -->
<g id="edge26" class="edge"><title>Summable&#45;&gt;Str</title>
<path fill="none" stroke="black" d="M58.6892,-215.871C59.8823,-191.67 62.0739,-147.211 63.4945,-118.393"/>
<polygon fill="black" stroke="black" points="67.0008,-118.349 63.9975,-108.189 60.0093,-118.005 67.0008,-118.349"/>
</g>
<!-- StreamSource -->
<g id="node12" class="node"><title>StreamSource</title>
<ellipse fill="none" stroke="black" cx="1036.84" cy="-306" rx="74.187" ry="18"/>
<text text-anchor="middle" x="1036.84" y="-302.3" font-family="sans-serif" font-size="14.00">StreamSource</text>
</g>
<!-- StreamSource&#45;&gt;Container -->
<g id="edge13" class="edge"><title>StreamSource&#45;&gt;Container</title>
<path fill="none" stroke="black" stroke-dasharray="1,5" d="M977.439,-295.149C920.189,-285.345 831.245,-269.302 754.845,-252 750.437,-251.002 745.874,-249.909 741.306,-248.775"/>
<polygon fill="black" stroke="black" points="741.915,-245.318 731.361,-246.245 740.19,-252.102 741.915,-245.318"/>
</g>
<!-- Iterator -->
<g id="node16" class="node"><title>Iterator</title>
<ellipse fill="none" stroke="black" cx="1036.84" cy="-234" rx="45.4919" ry="18"/>
<text text-anchor="middle" x="1036.84" y="-230.3" font-family="sans-serif" font-size="14.00">Iterator</text>
</g>
<!-- StreamSource&#45;&gt;Iterator -->
<g id="edge22" class="edge"><title>StreamSource&#45;&gt;Iterator</title>
<path fill="none" stroke="black" d="M1030.97,-288.055C1030.15,-280.346 1029.91,-271.027 1030.24,-262.364"/>
<polygon fill="black" stroke="black" points="1033.74,-262.491 1030.93,-252.275 1026.76,-262.012 1033.74,-262.491"/>
</g>
<!-- StreamSource&#45;&gt;Iterator -->
<g id="edge36" class="edge"><title>StreamSource&#45;&gt;Iterator</title>
<path fill="none" stroke="black" stroke-dasharray="1,5" d="M1042.72,-288.055C1043.54,-280.346 1043.78,-271.027 1043.45,-262.364"/>
<polygon fill="black" stroke="black" points="1046.93,-262.012 1042.76,-252.275 1039.95,-262.491 1046.93,-262.012"/>
</g>
<!-- StreamOperation -->
<g id="node13" class="node"><title>StreamOperation</title>
<ellipse fill="none" stroke="black" cx="1232.84" cy="-306" rx="88.2844" ry="18"/>
<text text-anchor="middle" x="1232.84" y="-302.3" font-family="sans-serif" font-size="14.00">StreamOperation</text>
</g>
<!-- Forall -->
<g id="node21" class="node"><title>Forall</title>
<polygon fill="none" stroke="black" points="1181.4,-234 1161.12,-252 1120.57,-252 1100.29,-234 1120.57,-216 1161.12,-216 1181.4,-234"/>
<text text-anchor="middle" x="1140.84" y="-230.3" font-family="sans-serif" font-size="14.00">Forall</text>
</g>
<!-- StreamOperation&#45;&gt;Forall -->
<g id="edge25" class="edge"><title>StreamOperation&#45;&gt;Forall</title>
<path fill="none" stroke="black" d="M1211.04,-288.411C1198.92,-279.191 1183.68,-267.588 1170.49,-257.555"/>
<polygon fill="black" stroke="black" points="1172.25,-254.498 1162.17,-251.228 1168.01,-260.069 1172.25,-254.498"/>
</g>
<!-- Fold -->
<g id="node22" class="node"><title>Fold</title>
<polygon fill="none" stroke="black" points="1265.89,-234 1249.37,-252 1216.32,-252 1199.8,-234 1216.32,-216 1249.37,-216 1265.89,-234"/>
<text text-anchor="middle" x="1232.84" y="-230.3" font-family="sans-serif" font-size="14.00">Fold</text>
</g>
<!-- StreamOperation&#45;&gt;Fold -->
<g id="edge24" class="edge"><title>StreamOperation&#45;&gt;Fold</title>
<path fill="none" stroke="black" d="M1232.84,-287.697C1232.84,-279.983 1232.84,-270.712 1232.84,-262.112"/>
<polygon fill="black" stroke="black" points="1236.34,-262.104 1232.84,-252.104 1229.34,-262.104 1236.34,-262.104"/>
</g>
<!-- Func -->
<g id="node28" class="node"><title>Func</title>
<polygon fill="none" stroke="black" points="1337.84,-252 1283.84,-252 1283.84,-216 1337.84,-216 1337.84,-252"/>
<text text-anchor="middle" x="1310.84" y="-230.3" font-family="sans-serif" font-size="14.00">Func</text>
</g>
<!-- StreamOperation&#45;&gt;Func -->
<g id="edge23" class="edge"><title>StreamOperation&#45;&gt;Func</title>
<path fill="none" stroke="black" d="M1251.73,-288.055C1261.52,-279.264 1273.65,-268.38 1284.37,-258.763"/>
<polygon fill="black" stroke="black" points="1286.76,-261.316 1291.87,-252.032 1282.09,-256.106 1286.76,-261.316"/>
</g>
<!-- Collector -->
<g id="node14" class="node"><title>Collector</title>
<ellipse fill="none" stroke="black" cx="700.845" cy="-306" rx="50.0912" ry="18"/>
<text text-anchor="middle" x="700.845" y="-302.3" font-family="sans-serif" font-size="14.00">Collector</text>
</g>
<!-- Collector&#45;&gt;Pushable -->
<g id="edge34" class="edge"><title>Collector&#45;&gt;Pushable</title>
<path fill="none" stroke="black" stroke-dasharray="1,5" d="M673.526,-290.834C653.075,-280.231 624.889,-265.615 602.483,-253.998"/>
<polygon fill="black" stroke="black" points="604.076,-250.881 593.587,-249.385 600.853,-257.095 604.076,-250.881"/>
</g>
<!-- CopyCollector -->
<g id="node15" class="node"><title>CopyCollector</title>
<ellipse fill="none" stroke="black" cx="836.845" cy="-234" rx="72.5877" ry="18"/>
<text text-anchor="middle" x="836.845" y="-230.3" font-family="sans-serif" font-size="14.00">CopyCollector</text>
</g>
<!-- Collector&#45;&gt;CopyCollector -->
<g id="edge35" class="edge"><title>Collector&#45;&gt;CopyCollector</title>
<path fill="none" stroke="black" d="M728.366,-290.834C748.197,-280.627 775.25,-266.703 797.378,-255.314"/>
<polygon fill="black" stroke="black" points="799.235,-258.294 806.525,-250.606 796.032,-252.07 799.235,-258.294"/>
</g>
<!-- CopyCollector&#45;&gt;Appendable -->
<g id="edge30" class="edge"><title>CopyCollector&#45;&gt;Appendable</title>
<path fill="none" stroke="black" stroke-dasharray="1,5" d="M836.845,-215.697C836.845,-207.983 836.845,-198.712 836.845,-190.112"/>
<polygon fill="black" stroke="black" points="840.345,-190.104 836.845,-180.104 833.345,-190.104 840.345,-190.104"/>
</g>
<!-- CopyCollector&#45;&gt;Maybe -->
<g id="edge33" class="edge"><title>CopyCollector&#45;&gt;Maybe</title>
<path fill="none" stroke="black" d="M869.475,-217.872C884.367,-209.095 900.511,-196.483 908.845,-180 916.064,-165.721 918.618,-156.668 908.845,-144 891.056,-120.942 816.048,-105.952 762.639,-97.9845"/>
<polygon fill="black" stroke="black" points="763.001,-94.5005 752.602,-96.5312 761.998,-101.428 763.001,-94.5005"/>
</g>
<!-- ArrayIterator -->
<g id="node19" class="node"><title>ArrayIterator</title>
<polygon fill="none" stroke="black" points="1117.95,-162 1077.4,-180 996.292,-180 955.739,-162 996.292,-144 1077.4,-144 1117.95,-162"/>
<text text-anchor="middle" x="1036.84" y="-158.3" font-family="sans-serif" font-size="14.00">ArrayIterator</text>
</g>
<!-- Iterator&#45;&gt;ArrayIterator -->
<g id="edge37" class="edge"><title>Iterator&#45;&gt;ArrayIterator</title>
<path fill="none" stroke="black" d="M1036.84,-215.697C1036.84,-207.983 1036.84,-198.712 1036.84,-190.112"/>
<polygon fill="black" stroke="black" points="1040.34,-190.104 1036.84,-180.104 1033.34,-190.104 1040.34,-190.104"/>
</g>
<!-- MappingIterator -->
<g id="node20" class="node"><title>MappingIterator</title>
<polygon fill="none" stroke="black" points="1327.97,-162 1279.91,-180 1183.78,-180 1135.72,-162 1183.78,-144 1279.91,-144 1327.97,-162"/>
<text text-anchor="middle" x="1231.84" y="-158.3" font-family="sans-serif" font-size="14.00">MappingIterator</text>
</g>
<!-- Iterator&#45;&gt;MappingIterator -->
<g id="edge38" class="edge"><title>Iterator&#45;&gt;MappingIterator</title>
<path fill="none" stroke="black" d="M1069.48,-221.284C1098.22,-210.967 1140.72,-195.71 1175.03,-183.394"/>
<polygon fill="black" stroke="black" points="1176.25,-186.677 1184.48,-180.004 1173.88,-180.089 1176.25,-186.677"/>
</g>
<!-- Char -->
<g id="node27" class="node"><title>Char</title>
<polygon fill="none" stroke="black" points="1392.84,-324 1338.84,-324 1338.84,-288 1392.84,-288 1392.84,-324"/>
<text text-anchor="middle" x="1365.84" y="-302.3" font-family="sans-serif" font-size="14.00">Char</text>
</g>
<!-- Eq -->
<g id="node29" class="node"><title>Eq</title>
<ellipse fill="none" stroke="black" cx="293.845" cy="-234" rx="27" ry="18"/>
<text text-anchor="middle" x="293.845" y="-230.3" font-family="sans-serif" font-size="14.00">Eq</text>
</g>
<!-- Eq&#45;&gt;String -->
<g id="edge9" class="edge"><title>Eq&#45;&gt;String</title>
<path fill="none" stroke="black" d="M275.252,-220.485C259.687,-210.009 237.197,-194.871 219.202,-182.76"/>
<polygon fill="black" stroke="black" points="221.03,-179.771 210.779,-177.091 217.121,-185.578 221.03,-179.771"/>
</g>
<!-- Eq&#45;&gt;ArrayList -->
<g id="edge11" class="edge"><title>Eq&#45;&gt;ArrayList</title>
<path fill="none" stroke="black" d="M303.015,-217.066C313.726,-198.859 332.346,-168.428 350.845,-144 363.768,-126.934 373.179,-127.101 382.845,-108 392.625,-88.6736 397.379,-64.5228 399.686,-46.2573"/>
<polygon fill="black" stroke="black" points="403.17,-46.5856 400.78,-36.2639 396.212,-45.8234 403.17,-46.5856"/>
</g>
<!-- Eq&#45;&gt;Array -->
<g id="edge10" class="edge"><title>Eq&#45;&gt;Array</title>
<path fill="none" stroke="black" d="M298.383,-215.921C303.163,-197.991 310.94,-168.989 317.845,-144 320.199,-135.481 322.808,-126.205 325.182,-117.83"/>
<polygon fill="black" stroke="black" points="328.56,-118.747 327.927,-108.171 321.826,-116.833 328.56,-118.747"/>
</g>
<!-- Eq&#45;&gt;Maybe -->
<g id="edge12" class="edge"><title>Eq&#45;&gt;Maybe</title>
<path fill="none" stroke="black" d="M320.917,-233.66C377.769,-233.971 512.447,-228.999 610.845,-180 631.67,-169.63 631.813,-159.847 648.845,-144 660.577,-133.084 673.756,-121.025 684.584,-111.171"/>
<polygon fill="black" stroke="black" points="686.951,-113.749 691.997,-104.433 682.243,-108.568 686.951,-113.749"/>
</g>
<!-- Eq&#45;&gt;Str -->
<g id="edge8" class="edge"><title>Eq&#45;&gt;Str</title>
<path fill="none" stroke="black" d="M270.51,-224.894C228.473,-210.279 144.226,-180.933 142.845,-180 139.351,-177.638 108.24,-141.68 86.383,-116.202"/>
<polygon fill="black" stroke="black" points="88.823,-113.671 79.6586,-108.354 83.5075,-118.225 88.823,-113.671"/>
</g>
</g>
</svg>
